<svg width="45" height="46" viewBox="0 0 45 46" fill="none" xmlns="http://www.w3.org/2000/svg">
<path fill-rule="evenodd" clip-rule="evenodd" d="M28 22C28 25.5899 25.0899 28.5 21.5 28.5C17.9101 28.5 15 25.5899 15 22C15 18.4101 17.9101 15.5 21.5 15.5C25.0899 15.5 28 18.4101 28 22ZM26.7618 28.676C25.3145 29.8183 23.4869 30.5 21.5 30.5C16.8056 30.5 13 26.6944 13 22C13 17.3056 16.8056 13.5 21.5 13.5C26.1944 13.5 30 17.3056 30 22C30 23.9869 29.3183 25.8145 28.176 27.2618L33.2071 32.2929C33.5976 32.6834 33.5976 33.3166 33.2071 33.7071C32.8166 34.0976 32.1834 34.0976 31.7929 33.7071L26.7618 28.676Z" fill="black"/>
</svg>
