<svg width="96" height="60" viewBox="0 0 96 60" fill="none" xmlns="http://www.w3.org/2000/svg">
<path fill-rule="evenodd" clip-rule="evenodd" d="M27.2111 52.4671C23.0964 57.6186 18.4147 59.9838 12.2588 59.9838C6.0867 59.9838 1.0162 55.3831 1 48.725C1 42.1641 5.8761 37.1584 12.032 37.1584C14.1868 37.1584 16.0543 37.5934 17.9355 38.0316C19.8445 38.4762 21.7678 38.9242 24.0198 38.9242C27.7457 38.9242 30.5806 36.7534 32.7514 32.4929C34.5 29.0489 34.882 25.2158 35.2937 21.0843C35.6334 17.6755 35.9933 14.0636 37.1577 10.2994C39.1179 4.01389 44.2532 -0.262828 50.5548 0.012567C56.5811 0.287962 59.5619 4.75907 59.5619 9.76478C59.5619 13.3611 58.2011 16.9412 56.2409 19.9868C55.5129 21.0899 54.6844 22.2782 53.8342 23.4978C50.9759 27.5973 47.8714 32.0502 47.5093 34.8095C47.1043 37.7902 48.7405 40.0258 51.5106 40.0258C54.0216 40.0258 55.6415 38.1952 56.6621 35.6195C57.5165 33.4349 58.0741 30.9071 58.6175 28.4439C58.9807 26.7973 59.3376 25.1796 59.7725 23.7127C62.3482 14.7057 66.0579 5.90925 74.255 5.16407C79.0663 4.75907 83.1324 8.08001 83.6022 13.1505C84.0072 18.4964 81.156 22.8865 76.8307 27.6978C73.7204 31.1484 72.0356 33.8699 71.7602 36.2999C71.4848 38.7298 72.8294 40.5604 75.3403 41.2408C76.3611 41.5218 77.5373 41.4922 78.8041 41.4603C80.3115 41.4222 81.9473 41.381 83.6022 41.8563C87.5873 43.0065 90.163 46.4571 90.163 50.5232C90.163 55.5937 86.1617 60 79.9411 60C72.8294 60 66.0579 55.3993 65.3127 47.4128C64.9078 43.0227 65.7177 39.5074 67.9533 35.1011C68.2179 34.5806 68.4667 34.0934 68.7 33.6364C70.6231 29.8696 71.4988 28.1544 71.6144 26.7096C71.8088 23.7289 69.9944 21.8983 67.8885 21.8983C65.9283 21.8983 64.5838 22.9027 63.628 24.2635C61.5382 27.309 61.3276 32.4605 61.3276 36.3809C61.3276 36.997 61.3373 37.6686 61.3475 38.3821C61.3981 41.9087 61.4634 46.4593 60.4528 50.3936C58.9625 56.2741 54.3618 60 49.0159 60C41.4344 60 36.0885 54.5245 36.8337 46.2627C37.3541 40.7272 40.8377 36.0207 44.2054 31.4708C44.297 31.347 44.3886 31.2233 44.4799 31.0998C47.6713 26.823 49.2913 23.9881 49.2913 21.3475C49.2913 18.9014 48.0601 16.8764 45.2899 16.8764C41.564 16.8764 39.6686 21.0722 38.5185 26.1427C35.6025 39.2644 31.6174 46.9107 27.2111 52.4671ZM82.5167 31.8457C81.9659 33.3685 82.7759 35.1019 84.3634 35.685C85.627 36.1548 87.0364 35.6526 87.7816 34.7941C87.733 35.928 88.4944 37.2078 89.8227 37.6938C91.3617 38.2446 93.0951 37.4346 93.6459 35.9118C94.1318 34.5673 93.6459 33.1579 92.7387 32.4775C93.8888 32.4613 95.1686 31.7161 95.6384 30.4363C96.2216 28.8326 95.4116 27.0992 93.8888 26.5484C92.5443 26.0624 91.1349 26.5484 90.4545 27.4556C90.4383 26.3054 89.6931 25.0257 88.4134 24.5559C86.8258 23.9727 85.0924 24.7827 84.5092 26.3702C84.0394 27.65 84.5416 29.0594 85.4164 29.8046C84.2824 29.756 83.0027 30.5173 82.5167 31.8457Z" fill="black"/>
</svg>
