<svg width="38" height="38" viewBox="0 0 38 38" fill="none" xmlns="http://www.w3.org/2000/svg">
<path fill-rule="evenodd" clip-rule="evenodd" d="M22.2731 5.14237C22.6877 6.03133 22.9414 6.95405 23.0461 7.87772C23.7209 7.23598 24.5096 6.69096 25.4002 6.27568C29.8167 4.21625 35.0664 6.127 37.1258 10.5435C39.1853 14.9599 37.2745 20.2097 32.858 22.2691C31.9662 22.685 31.0403 22.939 30.1136 23.0431C30.7574 23.719 31.3041 24.5094 31.7204 25.4021C33.7798 29.8186 31.8691 35.0684 27.4526 37.1278C23.0362 39.1872 17.7864 37.2765 15.727 32.86C15.3108 31.9676 15.0568 31.0412 14.9528 30.1139C14.2779 30.7558 13.4891 31.301 12.5983 31.7164C8.18181 33.7758 2.93206 31.8651 0.872631 27.4486C-1.1868 23.0321 0.723953 17.7824 5.14042 15.7229C6.02992 15.3082 6.95323 15.0544 7.87746 14.9498C7.23758 14.276 6.69407 13.4888 6.27971 12.6002C4.22028 8.18377 6.13103 2.93402 10.5475 0.874585C14.964 -1.18485 20.2137 0.725906 22.2731 5.14237Z" fill="black"/>
</svg>
